<svg xmlns="http://www.w3.org/2000/svg" viewBox="0 0 28 28" fill="none"><div xmlns="" id="in-page-channel-node-id" data-channel-name="in_page_channel_iQLVvI"/>
    <path clip-rule="evenodd" d="M23.788 11.67c-.064-.004-.135-.004-.208-.004h-2.876c-2.355 0-4.37 1.772-4.37 4.083s2.015 4.084 4.37 4.084h2.876c.073 0 .144 0 .208-.004.957-.058 1.803-.774 1.874-1.773.005-.066.005-.136.005-.202v-4.21c0-.065 0-.136-.005-.201-.071-1-.917-1.715-1.874-1.773z" stroke="#000" stroke-width="1.429"/>
    <path d="M11.622 2.969 9.287 4.547 7.361 5.836c1.265-.17 2.88-.17 4.919-.17h2.348c2.041 0 3.659 0 4.925.17.254.035.5.076.735.127l-2.112-1.408-2.347-1.586a3.798 3.798 0 0 0-4.207 0z" stroke="#000" stroke-width="1.429"/>
    <path d="M24.183 11.223c0-1.312-.048-2.719-.886-3.727a4.186 4.186 0 0 0-.26-.284c-.831-.832-1.885-1.2-3.188-1.376-1.266-.17-2.883-.17-4.925-.17h-2.348c-2.042 0-3.66 0-4.925.17-1.303.175-2.357.544-3.188 1.376-.832.831-1.201 1.886-1.376 3.188-.17 1.266-.17 2.884-.17 4.926v.125c0 2.042 0 3.66.17 4.925.175 1.303.544 2.357 1.376 3.189.831.831 1.885 1.2 3.188 1.375 1.266.17 2.883.17 4.925.17h2.348c2.042 0 3.66 0 4.925-.17 1.303-.175 2.357-.544 3.189-1.375.227-.228.42-.472.584-.734.5-.8.56-1.78.56-2.722l-.167.001h-3.082c-2.523 0-4.683-1.928-4.683-4.444 0-2.515 2.16-4.444 4.683-4.444h3.082l.168.001z" stroke="#000" stroke-width="1.429"/>
    <path d="M10.752 8.167a1.722 1.722 0 0 0-1.455.736l-.008-.009c-.03.05-.064.113-.099.186a2.06 2.06 0 0 0-.176.476 2.766 2.766 0 0 0-.096.722v-.014c-.02.58-.382 1.075-.967 1.071a1.236 1.236 0 0 1-1.092-.716l-.818.417c.298.683.951 1.17 1.94 1.17 1.123 0 1.591-.768 1.737-1.53.032-.136.05-.275.055-.415v-.023l.001-.057-.001-.046.003.005c.035-.573.364-1.022.972-1.062a1.232 1.232 0 0 1 .966.526l.82-.418a2.182 2.182 0 0 0-1.782-1.02M7.714 9.077c-.648.042-.962.52-.964 1.14 0 .056.005.113.014.168l-.83.423a2.38 2.38 0 0 1-.1-.695c0-1.222.914-1.947 1.85-1.947a2.15 2.15 0 0 1 1.454.596l-.884.458c-.166-.091-.351-.14-.54-.143M10.388 11.183c.181.1.384.154.591.158.593.003.934-.515.938-1.112 0-.148-.032-.293-.093-.427l.818-.416c.125.253.19.533.191.816a2.067 2.067 0 0 1-2.083 2.03 1.743 1.743 0 0 1-1.223-.565l.869-.47-.008-.014z" fill="#000"/>
</svg>